<svg width="887" height="731" viewBox="0 0 887 731" fill="none" xmlns="http://www.w3.org/2000/svg">
<path d="M543.043 986.387C556.225 982.6 568.564 976.731 580.436 969.863C605.816 955.13 629.171 937.583 651.458 918.532C700.991 876.29 746.372 829.987 787.449 779.497C800.434 763.539 813.285 747.508 824.237 730.048C827.821 724.324 831.307 718.458 834.011 712.254C834.348 711.472 834.954 710.837 834.635 709.567C829.836 710.418 825.037 711.269 820.253 712.173C813.596 713.46 806.955 714.799 800.298 716.086C800.194 716.117 800.142 716.132 800.037 716.163C798.806 716.414 797.815 716.707 797.133 718.047C789.512 732.189 779.874 744.881 769.949 757.373C739.504 795.844 706.102 831.607 670.578 865.381C650.691 884.291 629.956 902.256 607.897 918.623C593.061 929.668 577.648 939.916 560.685 947.609C551.172 951.902 541.411 955.359 530.749 955.385C520.327 955.455 511.784 949.792 507.607 940.278C504.356 932.935 503.307 925.169 503.019 917.291C502.438 901.708 504.483 886.371 507.165 871.074C511.126 848.401 516.609 826.075 522.347 803.844C531.702 767.177 541.948 730.644 549.954 693.636C552.478 682.025 554.71 670.387 556.65 658.722C556.798 657.882 556.947 657.042 557.132 656.133C558.909 656.575 559.638 656.928 560.803 657.607C564.281 659.194 566.937 661.65 569.08 665.055C570.393 666.998 570.843 667.946 571.808 669.48C572.249 670.203 572.727 670.858 573.152 671.529C572.704 666.371 572.189 661.177 571.241 656.054C570.724 652.965 569.983 649.885 569.086 646.852C564.726 632.5 554.928 624.706 539.994 623.722C532.055 623.17 524.305 624.212 516.629 626.084C499.63 630.204 483.577 636.945 467.907 644.596C437.741 659.266 409.219 676.806 380.909 694.681C357.808 709.252 335.05 724.404 311.72 738.587C300.751 745.245 289.75 751.799 278.018 757.034C273.157 759.211 268.219 761.127 262.935 762.065C259.158 762.728 255.107 762.846 251.225 760.468C252.401 762.907 253.308 764.629 254.209 766.524C256.446 771.209 258.929 775.764 261.271 780.418C264.405 786.6 268.616 788.937 275.661 788.389C283.76 787.756 291.286 785.187 298.611 781.939C314.645 774.749 329.818 765.994 344.748 756.799C372.847 739.555 400.816 722.065 428.968 704.805C446.796 693.899 464.952 683.522 483.709 674.218C495.427 668.362 507.331 663.134 519.783 658.994C528.301 656.132 536.999 654.071 546.045 653.954C548.198 653.942 550.388 653.863 552.601 654.63C551.963 660.336 550.71 665.883 549.628 671.436C543.541 702.075 535.676 732.272 527.812 762.469C519.314 795.129 510.389 827.688 502.761 860.603C497.455 883.332 493.294 906.29 491.994 929.711C491.359 940.99 491.621 952.231 494.594 963.239C495.727 967.454 497.315 971.478 499.618 975.233C504.178 982.586 510.681 986.919 519.122 988.402C527.188 989.77 535.2 988.65 543.043 986.387Z" fill="#111111" fill-opacity="0.15"/>
<path d="M537.673 932.178C547.545 931.589 556.466 927.983 565.187 923.696C581.265 915.697 595.922 905.388 610.033 894.387C638.91 871.907 665.345 846.738 690.715 820.461C711.748 798.71 731.876 776.203 750.684 752.494C757.589 743.796 764.327 734.92 770.274 725.482C770.966 724.367 771.928 723.4 771.955 721.572C768.455 722.209 765.043 722.764 761.663 723.423C747.916 726.068 734.118 728.729 720.356 731.322C717.998 731.792 715.64 732.262 713.266 732.68L712.938 732.72C711.983 732.946 711.309 733.544 710.644 734.366C683.531 769.519 653.044 801.519 620.353 831.44C607.046 843.625 593.178 855.066 577.84 864.609C570.312 869.282 562.593 873.5 553.689 875.054C549.531 875.772 545.486 875.718 541.776 873.346C537.629 870.648 535.786 866.53 534.805 861.872C533.12 854.066 533.468 846.227 534.212 838.385C535.668 823.166 539.042 808.29 542.483 793.45C549.095 765.159 556.869 737.15 562.643 708.709C565.466 694.848 567.861 680.887 568.834 666.72C568.888 666.136 568.995 665.535 569.101 664.935C566.999 661.86 564.52 659.237 560.824 657.487C559.566 664.742 558.375 672.033 557.048 679.251C552.38 704.522 546.175 729.393 539.782 754.207C532.909 781.04 525.676 807.808 519.724 834.88C516.021 851.902 512.744 869.025 511.714 886.45C511.181 895.196 511.252 903.878 513.378 912.406C515.216 919.768 518.407 926.332 525.695 929.864C529.468 931.876 533.481 932.395 537.673 932.178Z" fill="#111111" fill-opacity="0.15"/>
<path d="M543.088 841.333C545.066 852.238 551.325 856.13 561.94 852.876C570.483 850.291 577.943 845.581 585.16 840.432C598.004 831.285 609.804 820.911 621.204 810.144C636.96 795.3 651.915 779.67 666.387 763.557C672.917 756.279 679.416 748.896 685.493 741.239C686.247 740.333 687.203 739.538 687.563 738.067C686.354 737.628 685.154 737.983 684.08 738.188C676.385 739.611 668.669 741.155 660.907 742.541C658.862 742.919 657.534 743.994 656.174 745.534C636.283 768.654 615.509 790.897 591.768 810.208C586.331 814.66 580.568 818.584 574.213 821.658C571.676 822.864 569.014 823.652 566.291 824.23C562.008 825.099 558.427 822.973 556.793 818.793C555.066 814.298 554.878 809.633 555.331 804.835C556.775 789.961 560.101 775.496 563.291 760.959C566.952 744.177 571.332 727.524 573.607 710.469C574.974 700.51 575.876 690.516 574.542 680.445C574.161 677.43 573.899 674.436 572.98 671.523C572.555 670.852 572.062 670.145 571.637 669.474C571.332 673.432 571.043 677.442 570.739 681.4C569.414 697.832 566.24 713.958 562.534 730.013C558.707 746.617 554.827 763.235 550.828 779.833C548.35 790.065 546.112 800.339 544.301 810.715C542.689 820.805 541.228 831.02 543.088 841.333Z" fill="#111111" fill-opacity="0.15"/>
<path d="M560.788 657.554C564.469 659.252 566.963 661.927 569.065 665.002C566.87 661.613 564.214 659.157 560.788 657.554Z" fill="#111111" fill-opacity="0.15"/>
<path d="M246.952 743.531C250.387 743.823 253.684 743.075 256.926 741.945C265.323 739.062 273.027 734.792 280.684 730.365C299.723 719.328 317.927 707.003 336.327 694.961C363.531 677.185 390.803 659.447 419.07 643.347C437.471 632.841 456.193 623.035 475.785 615.02C489.703 609.309 503.899 604.54 518.894 602.663C525.518 601.84 532.171 601.692 538.742 602.99C551.215 605.442 560.218 612.277 564.972 624.123L566.302 627.085C566.418 623.639 566.36 623.826 566.23 622.045C566.084 620.211 565.835 618.408 565.637 616.589C565.221 613.072 564.654 609.429 564.029 605.974C563.568 603.266 563.092 600.506 562.564 597.762C560.876 588.99 558.547 580.351 554.088 572.57C553.746 571.988 553.419 571.459 553.077 570.878C545.826 559.031 535.081 552.257 521.508 549.732C510.159 547.629 498.885 548.463 487.637 550.539C468.972 554.014 451.324 560.544 434.016 568.225C400.451 583.105 369.093 601.996 338.353 622.012C313.139 638.459 288.684 655.933 263.979 673.139C254.229 679.892 244.562 686.734 234.143 692.376C232.529 693.252 230.952 694.06 229.292 694.778C226.441 696.077 223.132 697.17 219.672 696.601C221.194 700.018 222.728 703.091 224.178 706.075C229.56 717.166 235.328 728.03 240.762 739.106C242.061 741.963 244.101 743.294 246.952 743.531Z" fill="#111111" fill-opacity="0.15"/>
<path d="M214.313 678.107C216.885 677.403 219.266 676.243 221.601 674.927C232.329 668.795 242.253 661.479 252.193 654.215C275.546 637.238 298.952 620.245 322.996 604.257C346.936 588.301 371.513 573.35 397.118 560.143C408.737 554.146 420.579 548.708 432.695 543.815C444.164 539.227 455.803 535.215 467.804 532.232C481.125 528.917 494.624 526.97 508.41 528.295C517.062 529.147 525.631 531.447 533.093 535.95C544.947 543.022 552.322 555.287 557.329 567.798C557.758 568.865 558.501 571.376 559.176 572.314C558.482 565.75 557.966 564.197 557.37 561.415C556.61 557.886 555.625 554.367 554.656 550.9C550.629 536.905 544.978 523.561 533.763 513.854C527.201 508.174 519.326 504.19 510.996 501.934C499.015 498.654 486.894 498.543 474.653 499.947C456.654 502.03 439.402 507.021 422.531 513.492C389.071 526.236 357.99 543.566 327.748 562.581C321.432 566.555 315.178 570.737 308.893 574.815C308.083 575.339 307.356 575.952 306.11 576.15C305.588 574.769 306.196 573.565 306.461 572.35C311.095 551.185 314.943 529.854 317.899 508.389C322.873 472.449 325.094 436.414 322.602 400.18C320.843 374.48 316.763 349.181 309.183 324.521C300.411 295.833 287.325 269.445 268.385 246.098C249.612 222.929 226.697 205.138 199.788 192.453C172.27 179.436 143.172 172.973 112.918 171.232C92.3594 170.034 71.892 171.255 51.4926 174.049C29.5392 176.961 8.15256 181.981 -12.8277 188.758C-28.5838 193.818 -43.9936 199.856 -59.1501 206.559C-85.8295 218.434 -111.223 232.546 -135.352 249.013C-177.705 277.926 -215.237 312.01 -246.014 353.196C-263.073 376.103 -277.326 400.626 -286.776 427.766C-287.555 429.93 -288.146 432.153 -288.924 434.317C-289.382 435.647 -288.905 436.302 -287.681 436.793C-280.48 439.838 -273.264 442.936 -266.048 446.034L-259.545 448.831C-258.352 449.217 -257.751 448.755 -257.33 447.493C-256.53 445.208 -255.663 442.961 -254.795 440.714C-248.685 424.345 -240.253 409.109 -230.806 394.426C-221.271 379.66 -210.476 365.887 -198.891 352.676C-189.975 342.53 -180.456 332.888 -170.536 323.639C-153.29 307.502 -134.886 292.786 -115.459 279.416C-103.102 270.925 -90.4182 262.963 -77.2934 255.724C-59.9379 246.095 -42.1009 237.518 -23.6683 230.188C-6.77022 223.424 10.416 217.827 28.0259 213.47C41.0337 210.247 54.2369 207.876 67.5737 206.148C83.4347 204.129 99.3753 203.337 115.332 204.133C131.392 204.898 147.303 207.072 162.956 211.257C179.173 215.616 194.664 221.555 209.267 229.861C227.336 240.1 243.019 253.206 256.493 269.013C268.128 282.633 277.423 297.743 284.89 313.963C290.896 326.974 295.613 340.423 299.057 354.363C303.34 371.525 306.063 388.977 307.488 406.643C309.932 436.577 308.643 466.365 305.306 496.133C301.883 526.381 295.981 556.112 289.015 585.702C288.556 587.601 287.702 588.935 286.03 589.998C282.337 592.285 279.152 595.332 275.313 597.321C272.876 599.634 269.993 601.398 267.307 603.444C257.941 610.538 248.524 617.647 239.106 624.756C238.364 625.317 237.601 625.998 236.63 626.171C235.792 627.557 234.439 628.355 233.237 629.28C228.434 632.805 223.98 636.74 218.98 639.982C215.357 643.273 211.354 646.05 207.17 648.596C204.339 650.344 201.569 652.301 198.225 652.892C198.479 653.556 198.738 654.049 199.173 654.944C202.489 661.357 205.394 667.721 208.861 674.26C209.219 674.893 209.509 675.49 209.866 676.124C211.208 678.741 211.531 678.873 214.313 678.107Z" fill="#111111" fill-opacity="0.15"/>
<path d="M198.091 652.82C201.472 652.161 204.257 650.256 207.036 648.524C211.153 645.941 215.207 643.148 218.846 639.91C220.662 633.003 223.362 626.402 225.621 619.648C235.646 590.233 244.546 560.469 250.373 529.907C255.013 505.498 257.729 480.92 257.235 456.039C256.883 440.274 255.113 424.701 251.58 409.309C250.706 405.586 249.743 401.946 248.607 398.301C248.004 396.261 247.332 394.185 246.609 392.123C242.704 380.652 237.427 369.529 230.598 359.492C230.7 360.03 229.66 357.665 228.486 356.192C225.329 352.235 222.313 348.179 218.836 344.486C215.428 340.831 211.737 337.372 207.884 334.133C197.818 325.622 186.478 319.137 174.236 314.398C166.024 311.197 157.455 308.898 148.758 307.319C131.98 304.32 115.109 304.079 98.1908 305.786C86.6284 306.989 75.2092 309.06 63.9544 311.878C48.7915 315.682 34.0522 320.725 19.6591 326.747C10.5076 330.536 1.57846 334.884 -7.22111 339.478C-28.7997 350.755 -49.1175 363.99 -68.2888 378.99C-93.0994 398.333 -115.41 420.178 -134.587 445.134C-144.832 458.46 -153.986 472.601 -160.958 487.974C-161.331 488.823 -161.944 489.63 -161.843 490.738C-161.406 491.064 -160.932 491.322 -160.459 491.58L-157.402 492.894C-157.012 493.063 -156.689 493.195 -156.299 493.363C-154.279 494.245 -152.206 495.11 -150.171 496.044L-150.103 496.081L-141.903 499.627L-140.206 500.376C-139.289 500.787 -138.321 501.183 -137.352 501.579C-134.379 502.804 -134.803 503.1 -133.381 500.233C-128.311 489.746 -122.143 479.902 -115.268 470.53C-96.182 444.691 -73.8269 422.037 -48.5564 402.331C-26.9288 385.466 -3.96315 370.821 20.8646 359.209C41.9486 349.331 63.756 341.513 86.7355 337.274C109.178 333.136 131.646 332.346 154.032 337.61C159.038 338.802 164.018 340.287 168.814 342.11C170.038 342.601 171.261 343.092 172.485 343.583C182.674 347.906 192.066 353.943 200.363 361.271C208.526 368.525 215.438 377.116 220.997 386.506C225.643 394.345 229.323 402.755 232.116 411.428C235.865 422.945 238.116 434.963 239.245 447.029C242.118 476.495 238.72 505.484 232.576 534.206C226.696 561.712 217.832 588.337 207.978 614.687C204.591 623.766 201.002 632.734 198.058 641.966C197.062 645.503 196.164 649.181 198.091 652.82Z" fill="#111111" fill-opacity="0.15"/>
<path d="M236.548 626.084C237.503 625.858 238.282 625.229 239.024 624.669C248.442 617.559 257.859 610.45 267.225 603.356C269.911 601.31 272.794 599.547 275.231 597.233C278.364 584.419 281.564 571.641 284.337 558.763C290.946 527.969 295.722 496.923 297.292 465.402C298.337 444.958 297.97 424.534 295.688 404.164C293.614 385.837 289.928 367.817 284.176 350.294C279.905 337.394 274.569 324.924 267.798 313.163C258.195 296.438 246.345 281.516 231.73 268.947C217.785 256.92 202.184 247.544 185.017 240.736C170.994 235.159 156.564 231.465 141.707 229.206C126.116 226.767 110.44 226.343 94.6924 227.021C82.6369 227.516 70.599 229.03 58.6792 231.135C42.826 233.949 27.2147 237.772 11.8916 242.761C-9.73612 249.842 -30.6812 258.656 -50.9069 269.134C-72.1511 280.198 -92.4827 292.811 -111.782 306.996C-130.464 320.772 -148.139 335.841 -164.552 352.301C-179.343 367.143 -192.981 383.009 -205.11 400.135C-215.307 414.584 -224.255 429.802 -231.496 445.994C-233.061 449.528 -234.167 453.268 -235.732 456.803C-236.42 458.314 -236.047 459 -235.084 459.569L-223.776 464.413L-222.672 464.883L-219.36 466.292L-216.507 467.495L-214.69 468.266L-190.818 478.551L-190.105 478.851C-188.543 479.527 -187.049 480.165 -185.554 480.804C-182.956 481.912 -182.904 481.897 -181.859 479.483C-174.956 463.107 -165.467 448.184 -154.984 433.934C-147.098 423.183 -138.458 413.062 -129.35 403.371C-117.904 391.225 -105.726 379.829 -92.8817 369.147C-80.2157 358.63 -66.9734 348.911 -53.1705 339.935C-42.6434 333.123 -31.8205 326.736 -20.6862 320.825C-10.0796 315.241 0.7185 310.112 11.8066 305.58C26.596 299.554 41.7316 294.507 57.2231 290.663C80.1133 284.971 103.323 282.085 126.895 283.301C144.984 284.205 162.694 287.668 179.496 294.584C192.289 299.842 204.128 306.862 214.782 315.824C224.984 324.409 233.54 334.334 240.798 345.439C245.649 352.82 249.728 360.657 253.069 368.882C256.081 376.182 258.726 383.59 260.85 391.152C264.752 405.297 267.042 419.75 268.137 434.385C270.785 469.036 267.178 503.264 260.48 537.211C254.715 566.447 246.438 595.059 237.224 623.381C237.008 624.185 236.786 625.16 236.548 626.084Z" fill="#111111" fill-opacity="0.15"/>
</svg>
