<svg width="93" height="124" viewBox="0 0 93 124" fill="none" xmlns="http://www.w3.org/2000/svg">
<path d="M70.6969 93.2009C71.386 93.1886 72.0631 93.3821 72.6419 93.7567C73.2207 94.1313 73.6748 94.67 73.9464 95.3041C74.218 95.9382 74.2947 96.639 74.1667 97.3169C74.0388 97.9949 73.712 98.6193 73.228 99.1105C72.744 99.6017 72.1248 99.9374 71.4494 100.075C70.7741 100.212 70.0731 100.145 69.436 99.8818C68.7989 99.6187 68.2546 99.1715 67.8725 98.5973C67.4904 98.0231 67.2878 97.3479 67.2907 96.658C67.2886 95.7486 67.6454 94.8752 68.2833 94.2278C68.9212 93.5804 69.7886 93.2113 70.6969 93.2009ZM70.6969 99.4406C71.25 99.4608 71.7964 99.3152 72.2662 99.0224C72.736 98.7296 73.1077 98.303 73.3336 97.7973C73.5595 97.2915 73.6293 96.7298 73.5341 96.184C73.4389 95.6383 73.183 95.1335 72.7993 94.7344C72.4155 94.3352 71.9213 94.06 71.3802 93.9439C70.8391 93.8279 70.2757 93.8763 69.7623 94.083C69.2489 94.2898 68.8088 94.6453 68.4987 95.1041C68.1885 95.5629 68.0223 96.104 68.0215 96.658C68.0092 97.0183 68.0692 97.3774 68.1979 97.7142C68.3266 98.0509 68.5214 98.3583 68.7708 98.6184C69.0203 98.8785 69.3192 99.0859 69.65 99.2284C69.9808 99.3709 70.3368 99.4456 70.6969 99.448V99.4406ZM70.2659 98.5205H69.5549V94.736H70.8505C71.0123 94.7266 71.1743 94.75 71.3268 94.8048C71.4794 94.8596 71.6193 94.9447 71.7382 95.0549C71.8571 95.1652 71.9525 95.2983 72.0188 95.4463C72.085 95.5944 72.1208 95.7543 72.1239 95.9165C72.1237 96.1664 72.0435 96.4096 71.895 96.6105C71.7465 96.8114 71.5376 96.9593 71.2989 97.0325L72.1412 98.5031H71.346L70.5582 97.097H70.2783L70.2659 98.5205ZM70.7613 96.4968C71.18 96.4968 71.4153 96.291 71.4153 95.9438C71.4153 95.5966 71.18 95.3734 70.7613 95.3734H70.2659V96.4968H70.7613Z" fill="white"/>
<path d="M87.2651 66.9104C85.4195 66.9104 84.1239 67.8032 82.9447 68.7828L82.0925 70.0005L81.7853 69.7822L82.8208 68.0338V66.9402H76.2263V88.784H82.2114V74.9233C82.2114 72.6764 83.7225 71.9473 84.7506 71.8258C85.7415 71.6993 87 72.2474 87 73.475V88.784H92.9876V73.7279C92.9876 69.0705 90.8819 66.9104 87.2651 66.9104Z" fill="white"/>
<path d="M20.3732 84.0968H26.6656V88.7915H14.3807V66.9402H20.3732V84.0968Z" fill="white"/>
<path d="M0 88.7915H12.2849V84.4986H5.99009V79.6105H12.2849V75.5111H5.99009V71.3992H12.2849V66.9402H0V88.7915Z" fill="white"/>
<path d="M28.7614 88.7915H41.0487V84.4986H34.7539V79.6105H41.0487V75.5111H34.7539V71.3992H41.0487V66.9402H28.7614V88.7915Z" fill="white"/>
<path d="M61.8431 88.7915H74.1305V84.4986H67.8357V79.6105H74.1305V75.5111H67.8357V71.3992H74.1305V66.9402H61.8431V88.7915Z" fill="white"/>
<path d="M54.0545 66.9402V66.9476L51.7407 80.7984L51.5723 83.1792L51.5574 83.4024H51.3369L51.3196 83.1792L51.1511 80.7984L48.8398 66.9476L48.8373 66.9402H42.8051L47.7795 88.7915H55.1148L60.0867 66.9402H54.0545Z" fill="white"/>
<path d="M78.0347 0.0502014H0V31.0502H41.18C50.4195 17.5533 63.1618 6.83522 78.0347 0.0502014Z" fill="white"/>
<path d="M31.0107 124H61.9719L62.0066 93.0149H31.0677L31.0107 124Z" fill="white"/>
<path d="M93 31.1166V0C78.4135 4.03812 65.177 11.9213 54.6716 22.8269C44.1661 33.7324 36.7769 47.2607 33.275 62H64.962C67.3222 55.23 71.0216 49.0059 75.839 43.6995C80.6565 38.3932 86.493 34.1136 93 31.1166Z" fill="white"/>
</svg>
