<svg version = "1.1" xmlns="http://www.w3.org/2000/svg" xmlns:xlink = "http://www.w3.org/1999/xlink" id="pe-icons-sprite">
  <symbol id="shopping-cart-24" viewBox="0 0 24 24">
		<path d="M16 20C14.896 20 14 20.898 14 22 14 23.104 14.896 24 16 24 17.102 24 18 23.104 18 22 18 20.898 17.102 20 16 20M5 20C3.896 20 3 20.898 3 22 3 23.104 3.896 24 5 24 6.102 24 7 23.104 7 22 7 20.898 6.102 20 5 20M21.6306784 1C20.6610914 1 19.8308763 1.691 19.6574135 2.642L18.8632947 7 .501303029 7C.171422874 7-.0692191839 7.313.0180135621 7.632L2.4505037 17.526C2.68813773 18.396 3.48025117 19 4.38466424 19L17.222918 19C18.1915023 19 19.0217174 18.309 19.1951802 17.358L21.6306784 3 23.4986624 3C23.7754007 3 24 2.776 24 2.5L24 1.5C24 1.224 23.7754007 1 23.4986624 1L21.6306784 1z"/>
	</symbol>
	<symbol id="comment-18" viewBox="0 0 18 18">
		<path d="M11.25,1 L6.75,1 C3.037,1 0,4.037 0,7.75 C0,11.209 2.637,14.079 6,14.455 L6,16.5 C6,16.702 6.122,16.885 6.309,16.962 C6.371,16.987 6.435,17 6.5,17 C6.63,17 6.758,16.949 6.854,16.854 L9.207,14.5 L11.25,14.5 C14.963,14.5 18,11.462 18,7.75 C18,4.037 14.963,1 11.25,1"/>
	</symbol>
  <symbol id="comment-24" viewBox="0 0 24 24">
		<path d="M15,1 L9,1 C4.05,1 0,5.05 0,10 C0,14.95 4.05,19 9,19 L8,19 L8,22.5 C8,22.702 8.122,22.885 8.309,22.962 C8.371,22.987 8.435,23 8.5,23 C8.63,23 8.758,22.949 8.854,22.854 L12.707,19 L15,19 C19.95,19 24,14.95 24,10 C24,5.05 19.95,1 15,1"/>
	</symbol>
</svg>
